<?xml version="1.0" standalone="no"?>
<!DOCTYPE svg PUBLIC "-//W3C//DTD SVG 20010904//EN"
 "http://www.w3.org/TR/2001/REC-SVG-20010904/DTD/svg10.dtd">
<svg version="1.0" xmlns="http://www.w3.org/2000/svg"
 width="354.000000pt" height="354.000000pt" viewBox="0 0 354.000000 354.000000"
 preserveAspectRatio="xMidYMid meet">
<metadata>
Created by potrace 1.14, written by Peter Selinger 2001-2017
</metadata>
<g transform="translate(0.000000,354.000000) scale(0.100000,-0.100000)"
fill="#000000" stroke="none">
<path d="M807 2784 c-1 -1 -27 -4 -57 -8 -119 -13 -259 -66 -340 -128 -137
-106 -196 -222 -194 -383 0 -44 3 -93 6 -110 32 -169 168 -300 374 -361 73
-22 48 -17 244 -53 91 -16 181 -33 200 -37 55 -10 142 -39 183 -62 72 -38 106
-96 112 -190 12 -198 -177 -324 -475 -317 -52 2 -115 6 -140 10 -142 23 -343
106 -447 184 -31 24 -55 36 -63 31 -11 -7 -16 -155 -11 -283 1 -11 15 -24 38
-33 21 -8 47 -19 58 -24 109 -48 277 -87 435 -99 375 -29 650 71 785 284 67
107 87 200 72 335 -18 155 -86 250 -237 328 -44 23 -80 39 -80 37 0 -3 -17 1
-37 9 -56 21 -108 32 -318 71 -104 19 -212 42 -240 51 -143 45 -210 129 -204
256 6 118 78 200 220 249 72 25 255 35 344 18 28 -5 64 -12 80 -15 50 -9 210
-66 217 -78 4 -6 8 -7 8 -3 0 9 79 -35 126 -70 17 -13 36 -23 42 -23 9 0 12
41 12 143 0 134 -1 143 -21 155 -12 8 -31 15 -43 18 -11 2 -30 8 -41 13 -11 6
-40 16 -65 22 -25 7 -49 14 -55 15 -5 2 -21 5 -35 8 -14 3 -38 9 -55 12 -16 4
-39 8 -50 10 -106 14 -144 17 -238 18 -60 1 -109 1 -110 0z"/>
<path d="M1993 2752 c-16 -2 -23 -11 -25 -35 -2 -18 -2 -422 0 -899 l2 -868
595 0 595 0 1 50 c0 28 1 64 1 80 0 17 -1 44 -1 60 l-1 30 -474 0 -474 0 0
313 c0 171 2 320 5 330 4 16 35 17 474 17 l469 0 1 28 c1 26 1 155 0 179 -1
10 -106 13 -473 15 l-473 3 -1 230 c0 127 1 235 3 240 2 7 166 9 469 8 346 -1
466 2 470 10 2 7 5 56 7 110 2 80 -1 97 -13 98 -38 3 -1138 4 -1157 1z"/>
</g>
</svg>
